<?xml version="1.0" encoding="utf-8" ?>
<svg xmlns="http://www.w3.org/2000/svg" xmlns:xlink="http://www.w3.org/1999/xlink" width="612" height="612">
	<path fill="#6F69EB" transform="scale(1.19531 1.19531)" d="M255.849 54.9445L378.473 54.9379C382.899 54.9339 387.484 54.607 391.89 54.8677C398.833 55.2786 401.387 62.5779 398.039 67.9663C395.242 72.4678 391.557 76.6696 388.311 80.8819L308.814 185.655C297.644 200.395 285.523 215.401 275.118 230.613L347.262 230.591C375.034 230.531 363.938 242.8 355.246 258.114L339.965 284.954C334.543 294.482 332.453 300.533 323.669 307.971L180.872 428.883C176.808 432.294 172.622 435.533 168.646 439.053C162.873 444.19 145.511 462.717 139.583 448.701C137.627 444.075 144.217 433.359 146.123 429.195L190.88 331.648C193.996 324.889 197.277 318.14 200.095 311.251C195.112 311.482 190.015 311.264 185.021 311.262L134.063 311.261C127.366 311.271 114.78 313.162 113.4 303.838C112.522 297.902 123.688 286.462 127.153 281.941L232.041 145.961C237.913 138.394 244.087 131.054 249.655 123.255L164.848 123.272C140.776 123.324 144.952 116.707 152.935 99.9699L160.873 83.2583C164.581 75.5912 167.902 67.7171 171.718 60.1054C174.97 53.6199 180.244 54.9297 186.489 54.9338L255.849 54.9445Z"/>
	<path fill="#2AA9E6" transform="scale(1.19531 1.19531)" d="M207.626 187.994L238.67 187.994L214.792 241.839C209.426 253.877 203.788 265.822 198.806 278.027L259.993 278.027C257.478 281.743 255.641 286.027 253.589 290.012C247.511 301.821 241.006 313.358 234.641 325.008L216.796 357.67C213.051 364.371 209.659 371.211 205.693 377.795C208.659 375.305 211.236 371.359 213.752 368.346L314.552 248.814C317.793 244.937 320.86 240.591 324.389 237C329.658 236.997 357.279 235.114 358.203 239.232C357.54 242.193 345.149 262.586 342.797 266.79L332.383 285.657C325.745 297.792 325.806 298.293 314.842 307.722L176.177 424.451C171.915 428.003 150.659 447.505 146.058 447.544L145.687 447.096C145.411 443.772 154.157 427.142 155.778 423.636L170.624 391.263C183.809 362.412 196.797 333.452 210.816 304.992L151.85 304.993C145.503 304.993 124.945 305.697 120.045 304.248C118.569 301.735 123.72 296.927 125.098 295.049C138.693 276.526 153.127 258.636 167.094 240.392L194.267 205.034C198.667 199.361 202.893 193.388 207.626 187.994Z"/>
	<path fill="#52DDEC" transform="scale(1.19531 1.19531)" d="M368.886 61.0403C372.765 61.03 391.304 60.3075 393.47 61.9071C394.043 64.3472 386.003 73.2763 384.153 75.7128L272.148 224.028C268.907 228.441 265.873 232.925 262.19 237L324.389 237C320.86 240.591 317.793 244.937 314.552 248.814L213.752 368.346C211.236 371.359 208.659 375.305 205.693 377.795C209.659 371.211 213.051 364.371 216.796 357.67L234.641 325.008C241.006 313.358 247.511 301.821 253.589 290.012C255.641 286.027 257.478 281.743 259.993 278.027L198.806 278.027C203.788 265.822 209.426 253.877 214.792 241.839L238.67 187.994L207.626 187.994C225.97 164.92 243.849 139.136 263.05 117.046L167.439 117.034C149.552 117.022 151.115 118.378 158.609 102.612L167.306 84.351C171.037 76.636 174.348 68.5188 178.515 61.0403L368.886 61.0403Z"/>
	<path fill="#2AA9E6" transform="scale(1.19531 1.19531)" d="M368.886 61.0403C372.765 61.03 391.304 60.3075 393.47 61.9071C394.043 64.3472 386.003 73.2763 384.153 75.7128L272.148 224.028C268.907 228.441 265.873 232.925 262.19 237C261.418 237.241 239.508 237.129 237.565 237C239.981 233.204 242.962 229.566 245.643 225.946L331.118 111.613C343.786 94.8352 356.811 78.2466 368.886 61.0403Z"/>
</svg>
